<svg width="373" height="381" viewBox="0 0 373 381" fill="none" xmlns="http://www.w3.org/2000/svg">
<path d="M193.251 0.757446C249.37 42.133 305.911 83.5086 362.029 124.884C384.393 192.172 372.578 261.967 324.476 315.462L237.977 371.466C169.2 392.78 100.001 374.809 46.836 327.583C31.224 258.205 15.612 188.828 0 119.033C14.3462 84.7624 29.9581 65.1194 57.8066 40.4613L141.352 63.0298V133.243C175.529 115.272 228.695 111.928 257.809 141.602C288.611 172.947 286.079 254.444 257.387 286.207C208.019 340.539 103.377 287.043 108.862 287.043V87.6879L66.2455 75.9857C52.7432 89.3597 41.7726 105.241 33.7557 122.377L75.9502 310.447C117.723 345.136 174.264 356.838 226.585 341.374L301.691 292.894C337.135 251.936 349.371 195.933 334.603 144.527L173.842 26.2515L193.251 0.757446ZM141.352 273.669C165.825 287.461 212.661 290.386 231.648 266.146C249.792 243.16 251.902 183.813 232.07 161.662C209.707 136.168 166.669 146.199 141.352 161.662V273.669Z" fill="#F4F4F4"/>
</svg>
