<svg width="48" height="49" viewBox="0 0 48 49" fill="none" xmlns="http://www.w3.org/2000/svg">
<g clip-path="url(#clip0_41_31)">
<path d="M24.8688 0.0974121C32.0905 5.41868 39.3665 10.7399 46.5882 16.0612C49.4661 24.715 47.9457 33.6913 41.7557 40.5713L30.6244 47.7738C21.7738 50.5151 12.8688 48.2038 6.02715 42.13C4.0181 33.2075 2.00905 24.285 0 15.3087C1.84615 10.9012 3.8552 8.37494 7.43891 5.20368L18.19 8.10619V17.1362C22.5882 14.825 29.4299 14.395 33.1765 18.2112C37.1403 22.2425 36.8145 32.7238 33.1222 36.8088C26.7692 43.7963 13.3032 36.9163 14.009 36.9163V11.2774L8.52489 9.77244C6.78733 11.4924 5.37557 13.535 4.34389 15.7387L9.77376 39.9263C15.1493 44.3875 22.4253 45.8926 29.1584 43.9038L38.8235 37.6688C43.3846 32.4013 44.9593 25.1987 43.0588 18.5875L22.371 3.37617L24.8688 0.0974121V0.0974121ZM18.19 35.1963C21.3394 36.97 27.3665 37.3463 29.81 34.2288C32.1448 31.2725 32.4163 23.64 29.8643 20.7912C26.9864 17.5125 21.448 18.8025 18.19 20.7912V35.1963V35.1963Z" fill="black"/>
</g>
<defs>
<clipPath id="clip0_41_31">
<rect width="48" height="49" fill="white"/>
</clipPath>
</defs>
</svg>
