<svg width="15" height="20" viewBox="0 0 15 20" fill="none" xmlns="http://www.w3.org/2000/svg">
<path d="M1 18.4373L0.651136 17.5001C0.259655 17.6458 3.75807e-06 18.0195 3.79203e-06 18.4373C3.82599e-06 18.855 0.259655 19.2287 0.651136 19.3744L1 18.4373ZM1 1.56274L0.651133 0.625572C0.259652 0.771303 -2.43828e-09 1.14502 0 1.56274C2.43828e-09 1.98047 0.259652 2.35419 0.651133 2.49992L1 1.56274ZM5.86047 10C5.86047 13.4352 3.6949 16.367 0.651136 17.5001L1.34887 19.3744C5.1501 17.9594 7.86047 14.2975 7.86047 10H5.86047ZM0.651133 2.49992C3.69489 3.63297 5.86047 6.56485 5.86047 10H7.86047C7.86047 5.70252 5.1501 2.0406 1.34887 0.625572L0.651133 2.49992ZM1.34887 2.49992C2.21642 2.17697 3.15617 2 4.13953 2V0C2.91441 0 1.73856 0.22077 0.651133 0.625572L1.34887 2.49992ZM4.13953 2C8.55781 2 12.1395 5.58172 12.1395 10H14.1395C14.1395 4.47715 9.66238 0 4.13953 0V2ZM12.1395 10C12.1395 14.4183 8.55781 18 4.13953 18V20C9.66238 20 14.1395 15.5228 14.1395 10H12.1395ZM4.13953 18C3.15617 18 2.21642 17.823 1.34887 17.5001L0.651136 19.3744C1.73857 19.7792 2.9144 20 4.13953 20V18Z" fill="black"/>
</svg>
